HIERARCHY
ROOT Hips
{
 OFFSET 0.000000 0.000000 0.000000
 CHANNELS 6 Xposition Yposition Zposition Yrotation Xrotation Zrotation
 JOINT Chest
 {
  OFFSET 0.000000 9.585900 0.002600
  CHANNELS 3 Yrotation Xrotation Zrotation
  JOINT Chest2
  {
   OFFSET 0.000000 9.601200 -0.005300
   CHANNELS 3 Yrotation Xrotation Zrotation
   JOINT Chest3
   {
    OFFSET 0.000000 9.561800 0.000000
    CHANNELS 3 Yrotation Xrotation Zrotation
    JOINT Chest4
    {
     OFFSET 0.000000 9.552100 0.000000
     CHANNELS 3 Yrotation Xrotation Zrotation
     JOINT Neck
     {
      OFFSET 0.000000 14.453000 0.000000
      CHANNELS 3 Yrotation Xrotation Zrotation
      JOINT Head
      {
       OFFSET 0.000000 8.936500 -0.011300
       CHANNELS 3 Yrotation Xrotation Zrotation
       End Site
       {
        OFFSET 0.000000 17.073600 -0.006000
       }
      }
     }
     JOINT RightCollar
     {
      OFFSET -2.921100 9.558500 0.000000
      CHANNELS 3 Yrotation Xrotation Zrotation
      JOINT RightShoulder
      {
       OFFSET -13.519700 0.000000 0.000000
       CHANNELS 3 Yrotation Xrotation Zrotation
       JOINT RightElbow
       {
        OFFSET 0.000000 -29.696600 0.000000
        CHANNELS 3 Yrotation Xrotation Zrotation
        JOINT RightWrist
        {
         OFFSET 0.000000 -24.004700 0.000000
         CHANNELS 3 Yrotation Xrotation Zrotation
         End Site
         {
          OFFSET 0.000000 -17.728500 0.000000
         }
        }
       }
      }
     }
     JOINT LeftCollar
     {
      OFFSET 2.921100 9.558500 0.000000
      CHANNELS 3 Yrotation Xrotation Zrotation
      JOINT LeftShoulder
      {
       OFFSET 13.519700 0.000000 0.000000
       CHANNELS 3 Yrotation Xrotation Zrotation
       JOINT LeftElbow
       {
        OFFSET 0.000000 -29.696600 0.000000
        CHANNELS 3 Yrotation Xrotation Zrotation
        JOINT LeftWrist
        {
         OFFSET 0.000000 -24.004700 0.000000
         CHANNELS 3 Yrotation Xrotation Zrotation
         End Site
         {
          OFFSET 0.000000 -17.728500 0.000000
         }
        }
       }
      }
     }
    }
   }
  }
 }
 JOINT RightHip
 {
  OFFSET -7.771700 -0.012900 -0.001300
  CHANNELS 3 Yrotation Xrotation Zrotation
  JOINT RightKnee
  {
   OFFSET 0.000000 -40.869800 0.001200
   CHANNELS 3 Yrotation Xrotation Zrotation
   JOINT RightAnkle
   {
    OFFSET 0.000000 -39.717900 0.002100
    CHANNELS 3 Yrotation Xrotation Zrotation
    JOINT RightToe
    {
     OFFSET 0.000000 -4.965400 11.033500
     CHANNELS 3 Yrotation Xrotation Zrotation
     End Site
     {
      OFFSET 0.000000 -1.423100 5.872300
     }
    }
   }
  }
 }
 JOINT LeftHip
 {
  OFFSET 7.771700 -0.012900 -0.001300
  CHANNELS 3 Yrotation Xrotation Zrotation
  JOINT LeftKnee
  {
   OFFSET 0.000000 -40.869800 0.001200
   CHANNELS 3 Yrotation Xrotation Zrotation
   JOINT LeftAnkle
   {
    OFFSET 0.000000 -39.717900 0.002100
    CHANNELS 3 Yrotation Xrotation Zrotation
    JOINT LeftToe
    {
     OFFSET 0.000000 -4.965400 11.033500
     CHANNELS 3 Yrotation Xrotation Zrotation
     End Site
     {
      OFFSET 0.000000 -1.423100 5.872300
     }
    }
   }
  }
 }
}
MOTION
Frames: 15
Frame Time: 0.008333
-25.226335 58.250880 76.352346 176.802165 -31.651236 -2.772505 4.710067 18.487553 5.002750 0.523203 2.308862 0.338640 0.799414 3.819471 0.536359 3.947038 16.367021 2.837596 0.562143 14.353393 0.231773 1.024873 -9.158990 0.216308 -1.555936 -0.760567 0.684742 -7.917601 -13.534565 -5.005521 67.516302 -50.599056 -86.954893 16.981739 16.613767 -26.485893 -3.151626 -0.241331 0.025165 33.939496 -7.213291 1.408243 -85.988761 -35.809920 109.860551 -19.970718 9.461376 -6.052744 6.212104 -38.722824 -4.105621 -3.080257 64.083612 -1.732759 4.537132 8.934010 5.244554 -0.095446 0.210905 -0.075880 -6.903981 -45.729741 2.428493 28.304729 58.070791 27.324803 -7.654084 40.589749 3.221977 0.549665 -19.011075 -5.678374
-25.215698 58.251531 76.353141 176.744437 -31.657777 -2.806807 4.755534 18.496848 5.050826 0.524752 2.309282 0.338131 0.797552 3.820129 0.535863 3.947933 16.369219 2.834619 0.513362 14.356916 0.224009 0.998943 -9.169916 0.214815 -1.581711 -0.759181 0.678109 -7.939472 -13.529158 -5.011961 67.507074 -50.587094 -86.959283 16.975959 16.592317 -26.483267 -3.179343 -0.238987 0.017740 33.942076 -7.219632 1.417687 -85.980910 -35.747102 109.821930 -19.961691 9.505976 -6.043453 6.185242 -38.711622 -4.017320 -3.062299 64.052853 -1.713624 4.542291 8.946202 5.239729 -0.094468 0.212400 -0.080708 -6.923905 -45.720807 2.507371 28.314462 58.070998 27.396834 -7.763308 40.578355 3.099020 0.601256 -18.968257 -5.676406
-25.211649 58.251154 76.354691 176.689754 -31.653035 -2.798282 4.743523 18.515341 5.019499 0.534944 2.305066 0.344692 0.825252 3.811722 0.546195 3.912255 16.381934 2.817566 0.504848 14.351192 0.219069 0.977970 -9.181562 0.214590 -1.556835 -0.769732 0.678913 -7.973409 -13.520358 -5.023721 67.507712 -50.579629 -86.963392 16.977642 16.582272 -26.480740 -3.169599 -0.245152 0.012790 33.928335 -7.219782 1.431519 -85.933119 -35.730032 109.829316 -19.984443 9.500219 -6.072853 6.202122 -38.714719 -3.994177 -3.050683 64.037121 -1.702096 4.544752 8.950191 5.242269 -0.090465 0.215222 -0.085066 -6.905391 -45.726872 2.532854 28.325187 58.069922 27.421602 -7.748855 40.585270 3.124780 0.596431 -18.963276 -5.709183
-25.205984 58.250961 76.356172 176.639515 -31.647648 -2.797278 4.728717 18.531551 4.990743 0.496850 2.319451 0.323633 0.882746 3.796210 0.572180 3.842976 16.405531 2.779345 0.558976 14.325265 0.229077 0.962679 -9.192246 0.216172 -1.490942 -0.798947 0.694686 -8.009163 -13.506791 -5.036750 67.519961 -50.577468 -86.971034 16.979282 16.566389 -26.469018 -3.075825 -0.275616 0.030828 33.902456 -7.212904 1.440414 -85.901415 -35.712778 109.835394 -19.984474 9.509288 -6.081321 6.209376 -38.718210 -3.974891 -3.110081 64.020431 -1.734555 4.580927 8.957034 5.226849 -0.091190 0.206553 -0.075266 -6.944595 -45.741860 2.577708 28.408154 58.067780 27.495403 -7.663822 40.609913 3.230563 0.550515 -18.986709 -5.780985
-25.195231 58.249043 76.361118 176.542123 -31.621387 -2.799900 4.770256 18.514751 4.997855 0.525757 2.313637 0.337190 0.852645 3.807299 0.557108 3.876571 16.395600 2.787889 0.521593 14.328174 0.223164 0.950552 -9.201088 0.218610 -1.515374 -0.800259 0.693630 -8.023321 -13.494862 -5.042372 67.530917 -50.576887 -86.980273 16.989431 16.566368 -26.464713 -3.071817 -0.277266 0.030308 33.883764 -7.207284 1.447950 -85.890399 -35.697758 109.829414 -19.981848 9.523434 -6.109293 6.174628 -38.750638 -3.875035 -3.054049 63.990523 -1.713128 4.581230 8.973327 5.217948 -0.089816 0.210353 -0.078273 -6.959272 -45.772188 2.668281 28.444229 58.072184 27.547989 -7.647294 40.623360 3.229842 0.536910 -18.999754 -5.805412
-25.184084 58.249417 76.362088 176.478474 -31.620479 -2.819174 4.784053 18.523325 5.006745 0.556076 2.307828 0.349922 0.781932 3.825302 0.521961 3.955438 16.377950 2.814197 0.487630 14.331667 0.218976 0.976232 -9.210102 0.217444 -1.498605 -0.805920 0.699144 -8.074037 -13.479576 -5.055187 67.517109 -50.575457 -86.985500 16.997240 16.553579 -26.446977 -3.092976 -0.269798 0.019192 33.895750 -7.213427 1.458323 -85.896043 -35.695072 109.807464 -19.973327 9.545777 -6.108972 6.147852 -38.751180 -3.788876 -3.042354 63.965832 -1.713750 4.579895 8.985626 5.212264 -0.080549 0.212552 -0.084668 -6.997803 -45.775621 2.750957 28.470230 58.084688 27.604327 -7.660447 40.612060 3.176403 0.541737 -18.989393 -5.811530
-25.176690 58.249252 76.362937 176.434037 -31.615941 -2.825542 4.775597 18.529913 4.991541 0.551050 2.310652 0.350279 0.773841 3.828198 0.513027 3.918059 16.394002 2.788388 0.573472 14.307825 0.236315 0.917850 -9.214548 0.223233 -1.444150 -0.827027 0.716665 -8.065380 -13.474660 -5.058390 67.462321 -50.558242 -86.980316 16.999391 16.529406 -26.414357 -3.079626 -0.268975 0.021521 33.962394 -7.232007 1.460290 -85.888173 -35.693752 109.817421 -19.962730 9.540851 -6.120668 6.127620 -38.754893 -3.745495 -3.039562 63.950230 -1.709591 4.589003 8.993173 5.200625 -0.083213 0.209670 -0.084613 -7.009824 -45.781689 2.797753 28.482237 58.088978 27.631949 -7.649276 40.615210 3.175701 0.542278 -18.986259 -5.832264
-25.170655 58.249703 76.362019 176.412830 -31.620353 -2.836274 4.748157 18.546217 4.969864 0.552147 2.311376 0.350021 0.774371 3.828293 0.511467 3.934750 16.392214 2.790713 0.585636 14.303378 0.239944 0.864833 -9.221384 0.227791 -1.458043 -0.831341 0.715400 -8.028885 -13.473329 -5.048778 67.395700 -50.530077 -86.966543 17.005262 16.526828 -26.391673 -3.089791 -0.267160 0.024316 33.994488 -7.231762 1.459106 -85.923405 -35.701879 109.792110 -19.970033 9.582669 -6.076567 6.098199 -38.746608 -3.716100 -3.033858 63.940089 -1.698182 4.599970 8.994239 5.188626 -0.082873 0.207589 -0.084101 -7.030130 -45.778934 2.829630 28.496380 58.093009 27.662686 -7.645801 40.612094 3.168405 0.544933 -18.977168 -5.849791
-25.152482 58.248482 76.365180 176.316696 -31.605168 -2.884167 4.808677 18.534607 5.027357 0.511811 2.319278 0.326346 0.844463 3.814117 0.545027 3.949664 16.389639 2.795360 0.538762 14.306615 0.229921 0.860555 -9.231729 0.229261 -1.501540 -0.830956 0.706607 -8.041017 -13.458549 -5.052364 67.405327 -50.539203 -86.962360 17.015868 16.541353 -26.379010 -3.127499 -0.261238 0.019974 34.022852 -7.229027 1.455102 -85.931143 -35.707635 109.787423 -19.976914 9.595556 -6.055907 6.080334 -38.762919 -3.598645 -3.073155 63.898377 -1.700952 4.628904 9.021436 5.158065 -0.085212 0.203728 -0.078100 -7.078531 -45.801463 2.963679 28.560375 58.097827 27.735760 -7.473921 40.658473 3.331912 0.442837 -19.024216 -5.924832
-25.147282 58.246623 76.366717 176.266206 -31.589123 -2.881497 4.805624 18.531958 5.006919 0.500724 2.321625 0.319300 0.886022 3.803560 0.564009 3.924810 16.394935 2.778627 0.534390 14.302112 0.230271 0.854191 -9.241069 0.230533 -1.563135 -0.824020 0.690929 -8.008274 -13.447822 -5.037372 67.414939 -50.539084 -86.965163 17.017364 16.542225 -26.359053 -3.127005 -0.259947 0.024445 34.041359 -7.222647 1.452005 -85.930897 -35.711969 109.795486 -19.966762 9.583280 -6.085802 6.093111 -38.779849 -3.576610 -3.060017 63.886281 -1.679165 4.633586 9.025901 5.152269 -0.083801 0.206314 -0.080201 -7.064242 -45.828390 2.981938 28.588408 58.102709 27.785233 -7.406651 40.675914 3.394334 0.407938 -19.028116 -5.963131
-25.140612 58.245055 76.367516 176.217209 -31.576888 -2.892556 4.809257 18.531640 5.002381 0.501215 2.321245 0.318412 0.878022 3.804487 0.559877 3.932150 16.393286 2.775493 0.533107 14.296533 0.230381 0.851021 -9.251901 0.228834 -1.560908 -0.825733 0.690574 -8.027759 -13.433754 -5.042969 67.410583 -50.531244 -86.966055 17.012722 16.529657 -26.331016 -3.121630 -0.260477 0.025732 34.063565 -7.218937 1.455599 -85.920979 -35.713460 109.812346 -19.967932 9.584764 -6.097781 6.100242 -38.792496 -3.542406 -3.043967 63.871910 -1.646588 4.638398 9.034920 5.139655 -0.092777 0.197993 -0.065376 -7.060065 -45.852493 3.006242 28.622560 58.109655 27.862750 -7.366811 40.682001 3.421932 0.377251 -19.034822 -5.995249
-25.134140 58.243483 76.367955 176.155619 -31.565469 -2.900537 4.827643 18.529829 5.003536 0.501569 2.320808 0.317570 0.843409 3.813188 0.538882 3.973131 16.384307 2.786639 0.487249 14.292619 0.219496 0.885755 -9.264943 0.228926 -1.537379 -0.832322 0.698532 -8.070515 -13.411866 -5.056357 67.429616 -50.538273 -86.975123 17.017124 16.534130 -26.314333 -3.097026 -0.265916 0.033636 34.058471 -7.211333 1.457378 -85.922182 -35.718666 109.814990 -19.976833 9.596632 -6.119236 6.120498 -38.804430 -3.520770 -3.074478 63.855401 -1.630666 4.666052 9.044392 5.114141 -0.094008 0.197591 -0.062479 -7.045801 -45.870625 3.035561 28.643341 58.117467 27.931848 -7.347160 40.669869 3.425962 0.355404 -19.026125 -6.020000
-25.128133 58.244143 76.364525 176.113371 -31.578163 -2.919035 4.832519 18.551679 5.008989 0.501719 2.320200 0.317046 0.877718 3.805497 0.554204 3.937857 16.391195 2.763859 0.469262 14.287582 0.219013 0.892639 -9.273348 0.225894 -1.518555 -0.836382 0.708923 -8.108148 -13.392036 -5.070194 67.443567 -50.543358 -86.978906 17.023246 16.536672 -26.304280 -3.075651 -0.268125 0.041838 34.058325 -7.211055 1.459167 -85.941744 -35.696643 109.812511 -20.014475 9.641899 -6.193257 6.124254 -38.788937 -3.481605 -3.090344 63.842390 -1.621664 4.674067 9.050509 5.105693 -0.093119 0.194700 -0.064529 -7.043126 -45.860605 3.056877 28.595745 58.146462 27.956292 -7.332037 40.631809 3.382394 0.354634 -18.997100 -6.035411
-25.126421 58.244208 76.361455 176.081791 -31.583664 -2.921812 4.821074 18.568375 4.993155 0.501798 2.319540 0.316641 0.879595 3.805190 0.553404 3.898231 16.393898 2.744571 0.503908 14.280718 0.220852 0.886078 -9.279479 0.219926 -1.486222 -0.836718 0.712916 -8.172410 -13.350997 -5.093011 67.523365 -50.580665 -87.008570 17.019293 16.521457 -26.296071 -3.072773 -0.265543 0.029433 34.129873 -7.232624 1.473765 -85.940618 -35.683218 109.812690 -20.070743 9.658997 -6.281705 6.136539 -38.781593 -3.476061 -3.094297 63.837649 -1.598666 4.675058 9.053248 5.096071 -0.081379 0.193715 -0.072187 -7.032867 -45.855903 3.053621 28.560914 58.165486 27.973086 -7.311017 40.595376 3.387119 0.355904 -18.965651 -6.078060
-25.125124 58.243586 76.359749 176.024838 -31.579604 -2.912817 4.831165 18.574615 4.979610 0.501968 2.319032 0.316169 0.833020 3.812823 0.531193 3.988316 16.375661 2.774820 0.461826 14.283802 0.211247 0.908797 -9.284440 0.215612 -1.533255 -0.832254 0.706655 -8.170818 -13.331150 -5.099152 67.543249 -50.584492 -87.016291 17.037192 16.526464 -26.293828 -3.121227 -0.258455 0.013848 34.144365 -7.240360 1.482336 -85.905693 -35.661593 109.820014 -20.113657 9.675489 -6.353729 6.177145 -38.786336 -3.473201 -3.082152 63.829473 -1.560868 4.675662 9.057728 5.089198 -0.080273 0.192204 -0.070092 -7.010332 -45.860561 3.062098 28.543664 58.180623 27.993373 -7.275295 40.564723 3.393755 0.336350 -18.940834 -6.100499
